<mxfile>
  <diagram name="Classe Carros">
    <mxGraphModel dx="2000" dy="1200" grid="1" gridSize="10" guides="1" tooltips="1" connect="1">
      <root>
        <mxCell id="0" />
        <mxCell id="1" parent="0" />
        <mxCell id="2" value="Carros" style="rounded=1;whiteSpace=wrap;html=1;" vertex="1" parent="1">
          <mxGeometry x="100" y="100" width="160" height="180" as="geometry" />
        </mxCell>
        <mxCell id="3" value="String marca" style="text;html=1;" vertex="1" parent="2">
          <mxGeometry y="40" width="160" height="20" as="geometry" />
        </mxCell>
        <mxCell id="4" value="public String modelo" style="text;html=1;" vertex="1" parent="2">
          <mxGeometry y="60" width="160" height="20" as="geometry" />
        </mxCell>
        <mxCell id="5" value="public int ano" style="text;html=1;" vertex="1" parent="2">
          <mxGeometry y="80" width="160" height="20" as="geometry" />
        </mxCell>
        <mxCell id="6" value="mÃ©todos" style="text;html=1;" vertex="1" parent="2">
          <mxGeometry y="100" width="160" height="20" as="geometry" />
        </mxCell>
        <mxCell id="7" value="public void ligar()" style="text;html=1;" vertex="1" parent="2">
          <mxGeometry y="120" width="160" height="20" as="geometry" />
        </mxCell>
        <mxCell id="8" value="public void acelerar()" style="text;html=1;" vertex="1" parent="2">
          <mxGeometry y="140" width="160" height="20" as="geometry" />
        </mxCell>
        <mxCell id="9" value="public void frear()" style="text;html=1;" vertex="1" parent="2">
          <mxGeometry y="160" width="160" height="20" as="geometry" />
        </mxCell>
      </root>
    </mxGraphModel>
  </diagram>
</mxfile>